<svg width="40" height="40" viewBox="0 0 40 40" fill="none" xmlns="http://www.w3.org/2000/svg">
<path d="M18.4184 17.3583H10.9132C10.1881 17.3583 9.59998 16.7686 9.59998 16.0416V8.5167C9.59998 7.78967 10.1881 7.20001 10.9132 7.20001H18.4184C19.1436 7.20001 19.7317 7.78967 19.7317 8.5167V16.0416C19.7317 16.7686 19.1436 17.3583 18.4184 17.3583Z" fill="#3C29B7"/>
<path d="M29.8867 21.3453H22.3815C21.6564 21.3453 21.0682 20.7556 21.0682 20.0286V12.5037C21.0682 11.7767 21.6564 11.187 22.3815 11.187H29.8867C30.6118 11.187 31.2 11.7767 31.2 12.5037V20.0286C31.2 20.7556 30.6118 21.3453 29.8867 21.3453Z" fill="#CCC3FF"/>
<path d="M18.4184 28.8132H10.9132C10.1881 28.8132 9.59998 28.2235 9.59998 27.4965V19.975C9.59998 19.2479 10.1881 18.6583 10.9132 18.6583H18.4184C19.1436 18.6583 19.7317 19.2479 19.7317 19.975V27.4998C19.7317 28.2235 19.1436 28.8132 18.4184 28.8132Z" fill="#CCC3FF"/>
<path d="M29.8867 32.8H22.3815C21.6564 32.8 21.0682 32.2104 21.0682 31.4834V23.9585C21.0682 23.2314 21.6564 22.6418 22.3815 22.6418H29.8867C30.6118 22.6418 31.2 23.2314 31.2 23.9585V31.4834C31.2 32.2104 30.6118 32.8 29.8867 32.8Z" fill="#3C29B7"/>
</svg>
