<svg width="40" height="40" viewBox="0 0 40 40" fill="none" xmlns="http://www.w3.org/2000/svg">
<path d="M27.6092 15.2583C26.8316 19.763 22.6869 22.4061 21.0474 23.2872C20.6299 23.5132 20.1281 23.5132 19.7106 23.2833C17.8987 22.295 13.0186 19.1387 13.0186 13.7605C13.0186 9.5967 16.4776 6.24113 20.6759 6.40584C25.1691 6.58971 28.3753 10.8301 27.6092 15.2583Z" fill="#3C29B7"/>
<path d="M20.3695 15.9747C21.5775 15.9747 22.5568 14.9954 22.5568 13.7874C22.5568 12.5794 21.5775 11.6002 20.3695 11.6002C19.1615 11.6002 18.1823 12.5794 18.1823 13.7874C18.1823 14.9954 19.1615 15.9747 20.3695 15.9747Z" fill="white"/>
<path d="M32.3937 28.2668C32.3937 28.2668 31.551 25.7348 30.398 23.4594C29.2488 21.1802 29.4787 21.5211 27.0233 21.5211C27.0233 21.5211 24.6445 25.1946 20.3083 25.4206C15.9721 25.1946 13.5933 21.5211 13.5933 21.5211C11.1379 21.5211 11.3678 21.184 10.2186 23.4594C9.06941 25.7386 8.22285 28.2668 8.22285 28.2668C8.22285 28.2668 6.99707 31.1818 10.2952 31.1818C12.9038 31.1818 17.9104 31.1818 19.8869 31.1818C20.4079 31.1818 20.722 31.1818 20.722 31.1818C22.7024 31.1818 27.7051 31.1818 30.3137 31.1818C33.6195 31.1818 32.3937 28.2668 32.3937 28.2668Z" fill="#CCC3FF"/>
</svg>
