<svg width="40" height="41" viewBox="0 0 40 41" fill="none" xmlns="http://www.w3.org/2000/svg">
<path d="M39.1999 13.161L38.0473 13.614L35.8354 18.3501L34.9951 18.4846L34.7729 21.2383H34.1966L33.6203 19.5251L33.176 19.2559L32.6898 20.1126L32.2906 18.6684L33.6171 17.4048L30.9609 17.1357L30.2075 16.0526L28.9229 15.6456L28.2596 16.0526L29.232 17.0438L28.2596 17.9923L28.8778 19.0295L29.232 21.1497L26.975 22.0523L27.239 23.4964L25.0272 24.9865L21.0864 28.6395L18.2112 30.5333L18.3432 33.5102L17.68 34.9084L17.6349 37.3897L16.7946 37.5702L16.4405 39.1489L14.4475 41L12.6767 39.2867L10.3747 31.5278L9.09008 29.4962L8.649 25.4362L9.31224 23.4505L9.09008 20.4703L8.38177 21.8718L6.56591 22.7284L4.26389 20.2471L6.25682 19.7515L4.8402 19.1214L3.99988 18.1302L7.05529 17.5427C6.89753 17.2276 6.73655 16.9125 6.57878 16.5974C6.40493 16.2528 6.14414 15.3338 5.76101 15.2058C5.85115 15.1369 5.91877 15.0384 5.9413 14.9235C5.96706 14.8054 5.95418 14.6872 5.93808 14.5691C5.91877 14.4148 5.89945 14.2605 5.87691 14.1096C6.06043 14.1325 6.23751 14.0406 6.40171 13.9487C6.48864 13.8995 6.57557 13.8503 6.63674 13.7715C6.72689 13.6566 6.74621 13.4991 6.81704 13.3711C6.8267 13.3514 6.83957 13.335 6.85567 13.3219C6.90075 13.2923 6.96192 13.3219 7.01022 13.3416C7.20017 13.417 7.29676 13.3054 7.4674 13.289C7.77326 13.2562 8.092 13.417 8.39143 13.3514C8.72305 13.2759 8.99671 12.9444 9.18667 12.6851C9.40238 12.393 9.61488 12.1009 9.83059 11.8121C9.96582 11.6283 10.101 11.4445 10.2234 11.2508C10.3007 11.1261 10.3715 10.9981 10.4455 10.8734C10.526 10.7421 10.613 10.6141 10.6999 10.4861C10.7643 10.3876 10.8319 10.2925 10.8963 10.194C11.1088 9.87891 11.3213 9.56711 11.5305 9.25203C11.7044 8.99274 11.8815 8.73345 12.0553 8.47416C12.1519 8.33303 12.2453 8.1919 12.3419 8.04749C12.5351 7.75866 12.9794 7.3845 12.6928 7.08582C12.3709 6.74777 12.168 6.87249 11.7849 6.71494C11.7656 6.56725 11.7495 6.41955 11.7302 6.27186C11.7237 6.22263 11.7108 6.16027 11.6658 6.14057C11.6304 6.12416 11.5885 6.14057 11.5531 6.13729C11.4243 6.13401 11.3599 5.9699 11.2408 5.92723C11.1506 5.89441 11.0508 5.9338 10.9575 5.90754C10.8222 5.86816 10.7643 5.7139 10.7256 5.57605C10.6934 5.46117 10.658 5.34302 10.6258 5.22814C10.6033 5.14609 10.5808 5.05747 10.613 4.9787C10.6323 4.93275 10.6709 4.89665 10.6999 4.85726C10.7804 4.73582 10.7675 4.56844 10.8287 4.43715C10.8931 4.30258 11.0251 4.22381 11.141 4.12863C11.6754 3.69211 11.3663 3.21292 10.9607 2.82563C10.7675 2.64183 10.6387 2.58931 10.3908 2.53352C10.1719 2.48429 9.82416 2.43177 9.72113 2.19218C9.68571 2.11012 9.69215 2.01494 9.6503 1.93617C9.59556 1.82786 9.45712 1.74253 9.47966 1.62109C9.49575 1.53903 9.57946 1.49309 9.65995 1.47339C9.74044 1.4537 9.82415 1.4537 9.89498 1.41103C9.93362 1.38806 9.96582 1.34867 9.99801 1.31585C10.1139 1.18128 10.2459 1.04015 10.4198 1.02374C10.7128 0.997485 11.0766 0.964663 11.3406 0.803839C11.5112 0.698811 11.5788 0.472345 11.743 0.354188C11.9459 0.206493 12.2228 0.268853 12.4675 0.222903C12.989 0.127722 13.1049 0.34106 13.4913 0.646297C13.8165 0.902303 14.1449 1.14846 14.4733 1.40119C14.9337 1.75566 15.3973 2.11012 15.8577 2.46459L17.8056 2.14951C18.2112 2.08387 18.6877 2.52367 18.8455 2.81906C18.9357 2.98645 19.2158 3.22605 19.1449 3.46236C19.0322 3.84309 18.5493 4.03673 18.2241 4.14832C18.2982 4.37151 18.2628 4.6308 18.1307 4.82444C18.0921 4.88024 18.0438 4.93275 18.0181 4.99839C17.8796 5.32661 18.3465 5.67779 18.2209 6.01257C18.1726 6.13729 18.0567 6.21606 17.944 6.28499C17.8281 6.35719 17.7122 6.43268 17.5931 6.50489C17.4739 6.58038 17.3452 6.65915 17.2067 6.64602C17.1552 6.63946 17.1005 6.62304 17.0522 6.64602C16.5982 6.86592 17.1037 7.34839 17.284 7.57486C17.5222 8.06062 18.0342 8.41508 18.3143 8.87458C18.398 9.01243 18.398 9.19951 18.4849 9.32751C18.6008 9.4949 18.8745 9.4588 18.9389 9.63603C18.9485 9.66557 18.9743 9.69183 18.9968 9.71481C19.1095 9.82312 19.2254 9.93143 19.3381 10.0365C19.4476 10.1415 19.5796 10.2531 19.7277 10.2301C19.7438 10.2268 19.7599 10.2235 19.7728 10.2301C19.7985 10.2432 19.7985 10.276 19.7921 10.3056C19.7277 10.7159 19.4508 11.0277 19.1642 11.3001C18.9839 11.4707 18.9453 11.4445 19.0033 11.6316C19.0451 11.7661 19.2737 11.9663 19.3735 12.0615C19.4733 12.1567 19.5764 12.2552 19.6762 12.3504C19.8854 12.5538 20.1172 12.7639 20.4038 12.8066C20.4907 12.8197 20.5809 12.8164 20.6678 12.8394C20.861 12.8919 20.993 13.0724 21.1733 13.1578C21.4534 13.289 21.8043 13.184 22.0716 13.3416C22.1746 13.4039 22.2583 13.5024 22.3645 13.5582C22.5996 13.6829 22.8797 13.5844 23.1437 13.5516C23.6041 13.4925 23.7425 13.8831 24.0806 14.0899C24.3929 14.2802 24.7084 14.4608 25.0239 14.6478C25.552 14.9596 26.0832 15.2747 26.6112 15.5865C26.8881 15.5635 27.1972 15.5767 27.4676 15.5143C27.5996 15.4848 27.7316 15.4388 27.8443 15.3535C28.0761 15.1828 27.9248 15.2321 28.0182 15.0023C28.0536 14.9203 28.1856 14.9038 28.1985 14.8152C28.2049 14.7726 28.1759 14.7299 28.1631 14.6872C28.1437 14.6314 28.1534 14.5658 28.1566 14.5067C28.1759 14.2966 28.1534 14.08 28.0922 13.8798C28.0858 13.8601 28.2081 13.6698 28.2049 13.5976C28.2017 13.5057 28.9776 13.3645 29.0742 13.335C28.9519 13.3711 29.2931 14.3524 29.3092 14.4575L29.7954 14.8185H32.7607L32.6705 13.6468L35.8579 11.2115L36.6113 11.346L37.6738 10.8504L37.8959 12.0221L39.1806 12.1567C39.1999 12.1698 39.1999 13.161 39.1999 13.161Z" fill="#CCC3FF"/>
<path d="M16.4243 12.6727C16.5759 12.6727 16.6988 12.5502 16.6988 12.3991C16.6988 12.248 16.5759 12.1255 16.4243 12.1255C16.2728 12.1255 16.1499 12.248 16.1499 12.3991C16.1499 12.5502 16.2728 12.6727 16.4243 12.6727Z" fill="#F05A9B"/>
<path d="M14.5688 8.20749C14.7203 8.20749 14.8432 8.08501 14.8432 7.93391C14.8432 7.78282 14.7203 7.66034 14.5688 7.66034C14.4172 7.66034 14.2943 7.78282 14.2943 7.93391C14.2943 8.08501 14.4172 8.20749 14.5688 8.20749Z" fill="#F05A9B"/>
<path d="M14.836 12.399C14.9875 12.399 15.1104 12.2765 15.1104 12.1254C15.1104 11.9744 14.9875 11.8519 14.836 11.8519C14.6844 11.8519 14.5615 11.9744 14.5615 12.1254C14.5615 12.2765 14.6844 12.399 14.836 12.399Z" fill="#F05A9B"/>
<path d="M16.4243 17.0798C16.5759 17.0798 16.6988 16.9573 16.6988 16.8062C16.6988 16.6551 16.5759 16.5327 16.4243 16.5327C16.2728 16.5327 16.1499 16.6551 16.1499 16.8062C16.1499 16.9573 16.2728 17.0798 16.4243 17.0798Z" fill="#F05A9B"/>
<path d="M13.2746 15.8527C13.4261 15.8527 13.549 15.7302 13.549 15.5791C13.549 15.428 13.4261 15.3055 13.2746 15.3055C13.123 15.3055 13.0001 15.428 13.0001 15.5791C13.0001 15.7302 13.123 15.8527 13.2746 15.8527Z" fill="#F05A9B"/>
<path d="M15.3842 14.5702C15.5358 14.5702 15.6586 14.4477 15.6586 14.2966C15.6586 14.1456 15.5358 14.0231 15.3842 14.0231C15.2326 14.0231 15.1097 14.1456 15.1097 14.2966C15.1097 14.4477 15.2326 14.5702 15.3842 14.5702Z" fill="#F05A9B"/>
<path d="M15.3842 22.3882C15.5358 22.3882 15.6586 22.2657 15.6586 22.1146C15.6586 21.9635 15.5358 21.841 15.3842 21.841C15.2326 21.841 15.1097 21.9635 15.1097 22.1146C15.1097 22.2657 15.2326 22.3882 15.3842 22.3882Z" fill="#F05A9B"/>
<path d="M13.5492 24.1527C13.7008 24.1527 13.8237 24.0302 13.8237 23.8791C13.8237 23.728 13.7008 23.6055 13.5492 23.6055C13.3977 23.6055 13.2748 23.728 13.2748 23.8791C13.2748 24.0302 13.3977 24.1527 13.5492 24.1527Z" fill="#F05A9B"/>
<path d="M16.6985 26.2409C16.8501 26.2409 16.973 26.1185 16.973 25.9674C16.973 25.8163 16.8501 25.6938 16.6985 25.6938C16.5469 25.6938 16.4241 25.8163 16.4241 25.9674C16.4241 26.1185 16.5469 26.2409 16.6985 26.2409Z" fill="#F05A9B"/>
<path d="M14.0979 28.7079C14.2495 28.7079 14.3724 28.5854 14.3724 28.4343C14.3724 28.2832 14.2495 28.1608 14.0979 28.1608C13.9464 28.1608 13.8235 28.2832 13.8235 28.4343C13.8235 28.5854 13.9464 28.7079 14.0979 28.7079Z" fill="#F05A9B"/>
<path d="M16.4243 29.1499C16.5759 29.1499 16.6988 29.0275 16.6988 28.8764C16.6988 28.7253 16.5759 28.6028 16.4243 28.6028C16.2728 28.6028 16.1499 28.7253 16.1499 28.8764C16.1499 29.0275 16.2728 29.1499 16.4243 29.1499Z" fill="#F05A9B"/>
<path d="M17.7259 30.7285C17.8774 30.7285 18.0003 30.606 18.0003 30.4549C18.0003 30.3038 17.8774 30.1813 17.7259 30.1813C17.5743 30.1813 17.4514 30.3038 17.4514 30.4549C17.4514 30.606 17.5743 30.7285 17.7259 30.7285Z" fill="#F05A9B"/>
<path d="M15.11 30.455C15.2616 30.455 15.3845 30.3325 15.3845 30.1814C15.3845 30.0303 15.2616 29.9078 15.11 29.9078C14.9584 29.9078 14.8356 30.0303 14.8356 30.1814C14.8356 30.3325 14.9584 30.455 15.11 30.455Z" fill="#F05A9B"/>
<path d="M14.5613 32.3147C14.7129 32.3147 14.8358 32.1922 14.8358 32.0412C14.8358 31.8901 14.7129 31.7676 14.5613 31.7676C14.4097 31.7676 14.2869 31.8901 14.2869 32.0412C14.2869 32.1922 14.4097 32.3147 14.5613 32.3147Z" fill="#F05A9B"/>
<path d="M16.4243 32.4178C16.5759 32.4178 16.6988 32.2953 16.6988 32.1442C16.6988 31.9931 16.5759 31.8706 16.4243 31.8706C16.2728 31.8706 16.1499 31.9931 16.1499 32.1442C16.1499 32.2953 16.2728 32.4178 16.4243 32.4178Z" fill="#F05A9B"/>
<path d="M16.1498 34.6564C16.3014 34.6564 16.4243 34.5339 16.4243 34.3828C16.4243 34.2317 16.3014 34.1093 16.1498 34.1093C15.9982 34.1093 15.8754 34.2317 15.8754 34.3828C15.8754 34.5339 15.9982 34.6564 16.1498 34.6564Z" fill="#F05A9B"/>
<path d="M20.0878 17.0798C20.2394 17.0798 20.3622 16.9573 20.3622 16.8062C20.3622 16.6551 20.2394 16.5327 20.0878 16.5327C19.9362 16.5327 19.8134 16.6551 19.8134 16.8062C19.8134 16.9573 19.9362 17.0798 20.0878 17.0798Z" fill="#F05A9B"/>
<path d="M23.842 18.4879C23.9935 18.4879 24.1164 18.3655 24.1164 18.2144C24.1164 18.0633 23.9935 17.9408 23.842 17.9408C23.6904 17.9408 23.5675 18.0633 23.5675 18.2144C23.5675 18.3655 23.6904 18.4879 23.842 18.4879Z" fill="#F05A9B"/>
<path d="M29.862 17.3537C30.0135 17.3537 30.1364 17.2312 30.1364 17.0802C30.1364 16.9291 30.0135 16.8066 29.862 16.8066C29.7104 16.8066 29.5875 16.9291 29.5875 17.0802C29.5875 17.2312 29.7104 17.3537 29.862 17.3537Z" fill="#F05A9B"/>
<path d="M32.1559 17.0798C32.3075 17.0798 32.4304 16.9573 32.4304 16.8062C32.4304 16.6551 32.3075 16.5327 32.1559 16.5327C32.0043 16.5327 31.8815 16.6551 31.8815 16.8062C31.8815 16.9573 32.0043 17.0798 32.1559 17.0798Z" fill="#F05A9B"/>
<path d="M32.1559 15.1172C32.3075 15.1172 32.4304 14.9947 32.4304 14.8436C32.4304 14.6926 32.3075 14.5701 32.1559 14.5701C32.0043 14.5701 31.8815 14.6926 31.8815 14.8436C31.8815 14.9947 32.0043 15.1172 32.1559 15.1172Z" fill="#F05A9B"/>
<path d="M31.1059 19.2484C31.2574 19.2484 31.3803 19.126 31.3803 18.9749C31.3803 18.8238 31.2574 18.7013 31.1059 18.7013C30.9543 18.7013 30.8314 18.8238 30.8314 18.9749C30.8314 19.126 30.9543 19.2484 31.1059 19.2484Z" fill="#F05A9B"/>
<path d="M25.3151 20.3427C25.4667 20.3427 25.5895 20.2202 25.5895 20.0691C25.5895 19.918 25.4667 19.7955 25.3151 19.7955C25.1635 19.7955 25.0406 19.918 25.0406 20.0691C25.0406 20.2202 25.1635 20.3427 25.3151 20.3427Z" fill="#F05A9B"/>
<path d="M22.7846 21.3693C22.9362 21.3693 23.059 21.2468 23.059 21.0957C23.059 20.9446 22.9362 20.8221 22.7846 20.8221C22.633 20.8221 22.5101 20.9446 22.5101 21.0957C22.5101 21.2468 22.633 21.3693 22.7846 21.3693Z" fill="#F05A9B"/>
<path d="M20.0878 25.1038C20.2394 25.1038 20.3622 24.9813 20.3622 24.8302C20.3622 24.6791 20.2394 24.5566 20.0878 24.5566C19.9362 24.5566 19.8134 24.6791 19.8134 24.8302C19.8134 24.9813 19.9362 25.1038 20.0878 25.1038Z" fill="#F05A9B"/>
<path d="M20.0878 19.7956C20.2394 19.7956 20.3622 19.6731 20.3622 19.522C20.3622 19.3709 20.2394 19.2484 20.0878 19.2484C19.9362 19.2484 19.8134 19.3709 19.8134 19.522C19.8134 19.6731 19.9362 19.7956 20.0878 19.7956Z" fill="#F05A9B"/>
<path d="M13.5492 19.7956C13.7008 19.7956 13.8237 19.6731 13.8237 19.522C13.8237 19.3709 13.7008 19.2484 13.5492 19.2484C13.3977 19.2484 13.2748 19.3709 13.2748 19.522C13.2748 19.6731 13.3977 19.7956 13.5492 19.7956Z" fill="#F05A9B"/>
<path d="M11.0231 17.2179C11.1747 17.2179 11.2975 17.0954 11.2975 16.9443C11.2975 16.7932 11.1747 16.6707 11.0231 16.6707C10.8715 16.6707 10.7487 16.7932 10.7487 16.9443C10.7487 17.0954 10.8715 17.2179 11.0231 17.2179Z" fill="#F05A9B"/>
<path d="M22.2354 23.8792C22.387 23.8792 22.5098 23.7568 22.5098 23.6057C22.5098 23.4546 22.387 23.3321 22.2354 23.3321C22.0838 23.3321 21.9609 23.4546 21.9609 23.6057C21.9609 23.7568 22.0838 23.8792 22.2354 23.8792Z" fill="#F05A9B"/>
<path d="M18.8114 21.6427C18.963 21.6427 19.0859 21.5202 19.0859 21.3692C19.0859 21.2181 18.963 21.0956 18.8114 21.0956C18.6599 21.0956 18.537 21.2181 18.537 21.3692C18.537 21.5202 18.6599 21.6427 18.8114 21.6427Z" fill="#F05A9B"/>
<path d="M16.1498 9.79874C16.3014 9.79874 16.4243 9.67625 16.4243 9.52516C16.4243 9.37407 16.3014 9.25159 16.1498 9.25159C15.9982 9.25159 15.8754 9.37407 15.8754 9.52516C15.8754 9.67625 15.9982 9.79874 16.1498 9.79874Z" fill="#F05A9B"/>
<path d="M10.1986 18.226C12.7384 18.226 14.7973 16.1736 14.7973 13.6419C14.7973 11.1102 12.7384 9.05786 10.1986 9.05786C7.65887 9.05786 5.59998 11.1102 5.59998 13.6419C5.59998 16.1736 7.65887 18.226 10.1986 18.226Z" fill="white" stroke="#3C29B7" stroke-width="0.997508" stroke-miterlimit="10"/>
<path d="M11.4997 12.999C11.1802 13.4061 10.6858 13.6676 10.1281 13.6676C9.57192 13.6676 9.07603 13.4046 8.75649 12.999C8.12796 13.31 7.75566 13.5083 7.5974 14.2881C7.5356 14.5931 7.52806 14.8335 7.52806 14.8335C7.52204 15.0303 7.52204 15.2091 7.52354 15.3428C7.52505 15.4705 7.62905 15.5727 7.75566 15.5727H12.499C12.6271 15.5727 12.7296 15.4705 12.7311 15.3443C12.7327 15.2121 12.7327 15.0318 12.7251 14.835C12.7251 14.835 12.7161 14.5706 12.6573 14.2881C12.5005 13.5083 12.1282 13.31 11.4997 12.999Z" fill="#3C29B7"/>
<path d="M10.1284 13.4964C9.26322 13.4964 8.55933 12.7948 8.55933 11.9324C8.55933 11.0699 9.26322 10.3683 10.1284 10.3683C10.5474 10.3683 10.9423 10.5306 11.2377 10.8265C11.5347 11.1225 11.6975 11.5147 11.6975 11.9324C11.6975 12.7948 10.9936 13.4964 10.1284 13.4964Z" fill="#3C29B7"/>
<path d="M10.1282 10.538C10.8999 10.538 11.527 11.163 11.527 11.9323C11.527 12.703 10.8999 13.3266 10.1282 13.3266C9.3565 13.3266 8.72948 12.703 8.72948 11.9323C8.72948 11.1615 9.3565 10.538 10.1282 10.538ZM10.1282 10.1969C9.16809 10.1969 8.38733 10.9752 8.38733 11.9323C8.38733 12.8893 9.16809 13.6676 10.1282 13.6676C11.0884 13.6676 11.8691 12.8893 11.8691 11.9323C11.8691 10.9752 11.0884 10.1969 10.1282 10.1969Z" fill="white"/>
<path d="M25.6161 26.2171C28.1559 26.2171 30.2148 24.1648 30.2148 21.6331C30.2148 19.1014 28.1559 17.049 25.6161 17.049C23.0763 17.049 21.0175 19.1014 21.0175 21.6331C21.0175 24.1648 23.0763 26.2171 25.6161 26.2171Z" fill="white" stroke="#3C29B7" stroke-width="0.997508" stroke-miterlimit="10"/>
<path d="M26.9162 20.9898C26.5967 21.397 26.1023 21.6584 25.5446 21.6584C24.9884 21.6584 24.4925 21.3955 24.173 20.9898C23.5445 21.3008 23.1722 21.4991 23.0139 22.2789C22.9521 22.5839 22.9446 22.8243 22.9446 22.8243C22.9385 23.0212 22.9385 23.2 22.94 23.3337C22.9416 23.4614 23.0456 23.5636 23.1722 23.5636H27.9155C28.0437 23.5636 28.1461 23.4614 28.1477 23.3352C28.1492 23.203 28.1492 23.0227 28.1416 22.8258C28.1416 22.8258 28.1326 22.5614 28.0738 22.2789C27.917 21.4991 27.5447 21.3008 26.9162 20.9898Z" fill="#3C29B7"/>
<path d="M25.5449 21.4872C24.6797 21.4872 23.9758 20.7856 23.9758 19.9231C23.9758 19.0607 24.6797 18.3591 25.5449 18.3591C25.9639 18.3591 26.3588 18.5213 26.6542 18.8173C26.9512 19.1133 27.114 19.5055 27.114 19.9231C27.114 20.7856 26.4101 21.4872 25.5449 21.4872Z" fill="#3C29B7"/>
<path d="M25.5447 18.5287C26.3164 18.5287 26.9435 19.1538 26.9435 19.923C26.9435 20.6938 26.3164 21.3173 25.5447 21.3173C24.773 21.3173 24.146 20.6938 24.146 19.923C24.146 19.1523 24.773 18.5287 25.5447 18.5287ZM25.5447 18.1877C24.5846 18.1877 23.8038 18.966 23.8038 19.923C23.8038 20.8801 24.5846 21.6584 25.5447 21.6584C26.5049 21.6584 27.2856 20.8801 27.2856 19.923C27.2856 18.966 26.5049 18.1877 25.5447 18.1877Z" fill="white"/>
<path d="M14.5153 32.6715C17.0551 32.6715 19.114 30.6191 19.114 28.0874C19.114 25.5557 17.0551 23.5034 14.5153 23.5034C11.9755 23.5034 9.91663 25.5557 9.91663 28.0874C9.91663 30.6191 11.9755 32.6715 14.5153 32.6715Z" fill="white" stroke="#3C29B7" stroke-width="0.997508" stroke-miterlimit="10"/>
<path d="M15.8159 27.4442C15.4963 27.8513 15.0019 28.1128 14.4443 28.1128C13.8881 28.1128 13.3922 27.8498 13.0726 27.4442C12.4441 27.7552 12.0718 27.9535 11.9136 28.7333C11.8518 29.0383 11.8442 29.2787 11.8442 29.2787C11.8382 29.4755 11.8382 29.6543 11.8397 29.788C11.8412 29.9157 11.9452 30.0179 12.0718 30.0179H16.8152C16.9433 30.0179 17.0458 29.9157 17.0473 29.7895C17.0488 29.6573 17.0488 29.477 17.0413 29.2802C17.0413 29.2802 17.0322 29.0157 16.9735 28.7333C16.8167 27.9535 16.4444 27.7552 15.8159 27.4442Z" fill="#3C29B7"/>
<path d="M14.4446 27.9416C13.5794 27.9416 12.8755 27.2399 12.8755 26.3775C12.8755 25.5151 13.5794 24.8134 14.4446 24.8134C14.8636 24.8134 15.2585 24.9757 15.5539 25.2717C15.8508 25.5677 16.0136 25.9598 16.0136 26.3775C16.0136 27.2399 15.3097 27.9416 14.4446 27.9416Z" fill="#3C29B7"/>
<path d="M14.4444 24.9831C15.2161 24.9831 15.8431 25.6081 15.8431 26.3774C15.8431 27.1482 15.2161 27.7717 14.4444 27.7717C13.6727 27.7717 13.0456 27.1482 13.0456 26.3774C13.0456 25.6066 13.6727 24.9831 14.4444 24.9831ZM14.4444 24.642C13.4843 24.642 12.7035 25.4203 12.7035 26.3774C12.7035 27.3345 13.4843 28.1127 14.4444 28.1127C15.4045 28.1127 16.1853 27.3345 16.1853 26.3774C16.1853 25.4203 15.4045 24.642 14.4444 24.642Z" fill="white"/>
</svg>
