<svg width="40" height="40" viewBox="0 0 40 40" fill="none" xmlns="http://www.w3.org/2000/svg">
<path d="M14.9073 19.8453C14.4399 19.8453 14.0547 19.4632 14.0483 18.9959C14.0452 18.7369 14.0452 18.339 14.0578 17.8937C14.0578 17.8716 14.0768 17.3411 14.2126 16.6685C14.5915 14.7927 15.5515 14.319 16.8747 13.659L17.1399 13.5264L17.3231 13.7601C17.9641 14.5779 18.9241 15.0485 19.9568 15.0485C20.9894 15.0485 21.9494 14.5779 22.5905 13.7601L22.7736 13.5264L23.0389 13.659C24.3652 14.3158 25.322 14.7927 25.701 16.6622C25.8305 17.2874 25.8494 17.8653 25.8526 17.8906C25.8652 18.2474 25.8684 18.6169 25.8652 18.9959C25.8589 19.4632 25.4736 19.8453 25.0063 19.8453H14.9073Z" fill="#3C29B7"/>
<path d="M22.8769 13.9842C24.2159 14.6474 25.0053 15.0705 25.3464 16.7347C25.4696 17.3379 25.4885 17.9032 25.4885 17.9032C25.5043 18.3232 25.5043 18.7084 25.5011 18.9895C25.498 19.2611 25.2769 19.479 25.0053 19.479H14.9064C14.6348 19.479 14.4137 19.2611 14.4106 18.9895C14.4074 18.7053 14.4074 18.3232 14.4201 17.9032C14.4201 17.9032 14.4359 17.3916 14.5685 16.7411C14.9064 15.0737 15.699 14.6505 17.038 13.9874C17.7169 14.8558 18.7717 15.4147 19.9559 15.4147C21.1432 15.4147 22.198 14.8526 22.8769 13.9842ZM22.6685 13.0684L22.3022 13.5358C21.7306 14.2653 20.8748 14.6853 19.9559 14.6853C19.0369 14.6853 18.1811 14.2653 17.6095 13.5358L17.2432 13.0684L16.7127 13.3337C15.4022 13.9842 14.2716 14.5463 13.8548 16.5958C13.7127 17.3 13.6937 17.859 13.6937 17.8811C13.6843 18.2411 13.678 18.6168 13.6843 18.9958C13.6906 19.6621 14.2401 20.2053 14.9064 20.2053H25.0053C25.6717 20.2053 26.2211 19.6621 26.2274 18.9958C26.2306 18.6137 26.2274 18.2379 26.2148 17.8747C26.2148 17.8495 26.1927 17.24 26.0569 16.5832C25.6401 14.54 24.5096 13.9779 23.199 13.3274L22.6685 13.0684Z" fill="white"/>
<path d="M19.9561 15.0452C18.1151 15.0452 16.6151 13.5452 16.6151 11.7042C16.6151 9.8631 18.1151 8.3631 19.9561 8.3631C20.8498 8.3631 21.6866 8.71047 22.3182 9.34205C22.9498 9.97363 23.2972 10.8136 23.2972 11.7042C23.2972 13.5484 21.8003 15.0452 19.9561 15.0452Z" fill="#3C29B7"/>
<path d="M19.9557 8.72632C21.5978 8.72632 22.9336 10.059 22.9336 11.7042C22.9336 13.3495 21.6009 14.6821 19.9557 14.6821C18.3104 14.6821 16.9778 13.3495 16.9778 11.7042C16.9778 10.0621 18.3136 8.72632 19.9557 8.72632ZM19.9557 8C17.9125 8 16.2483 9.66105 16.2483 11.7042C16.2483 13.7474 17.9094 15.4116 19.9557 15.4116C21.9988 15.4116 23.6599 13.7505 23.6599 11.7042C23.6631 9.66105 21.9988 8 19.9557 8Z" fill="white"/>
<path d="M5.22638 23.6317C4.75901 23.6317 4.37375 23.2496 4.36743 22.7822C4.36427 22.5232 4.36427 22.1253 4.3769 21.6801C4.3769 21.658 4.39585 21.1274 4.53164 20.4548C4.91059 18.579 5.87059 18.1053 7.19375 17.4485L7.45902 17.3159L7.64217 17.5495C8.28323 18.3674 9.24323 18.838 10.2759 18.838C11.3085 18.838 12.2685 18.3674 12.9096 17.5495L13.0927 17.3159L13.358 17.4485C14.6843 18.1053 15.6411 18.5822 16.0201 20.4517C16.1496 21.0769 16.1685 21.6548 16.1717 21.6801C16.1843 22.0369 16.1875 22.4064 16.1843 22.7853C16.178 23.2527 15.7927 23.6348 15.3253 23.6348H5.22638V23.6317Z" fill="#3C29B7"/>
<path d="M13.1938 17.7737C14.5327 18.4369 15.3222 18.86 15.6633 20.5242C15.7864 21.1274 15.8054 21.6927 15.8054 21.6927C15.8212 22.1127 15.8212 22.4979 15.818 22.779C15.8148 23.0506 15.5938 23.2684 15.3222 23.2684H5.2264C4.95482 23.2684 4.73377 23.0506 4.73061 22.779C4.72746 22.4948 4.72746 22.1127 4.74009 21.6927C4.74009 21.6927 4.75588 21.1811 4.88851 20.5305C5.2264 18.8632 6.01904 18.44 7.35799 17.7769C8.03694 18.6453 9.09167 19.2042 10.2759 19.2042C11.4601 19.2042 12.5148 18.6421 13.1938 17.7737ZM12.9885 16.8579L12.6222 17.3253C12.0506 18.0548 11.1948 18.4748 10.2759 18.4748C9.35694 18.4748 8.50115 18.0548 7.92957 17.3253L7.56325 16.8579L7.03272 17.1232C5.72219 17.7737 4.59167 18.3358 4.17482 20.3853C4.03272 21.0895 4.01377 21.6484 4.01377 21.6706C4.00114 22.0306 3.99798 22.4063 4.00114 22.7853C4.00745 23.4516 4.55693 23.9948 5.22325 23.9948H15.3222C15.9885 23.9948 16.538 23.4516 16.5443 22.7853C16.5475 22.4032 16.5443 22.0274 16.5317 21.6642C16.5317 21.639 16.5096 21.0295 16.3738 20.3727C15.957 18.3295 14.8264 17.7674 13.5159 17.1169L12.9885 16.8579Z" fill="white"/>
<path d="M10.2747 18.8348C8.43361 18.8348 6.93361 17.3348 6.93361 15.4938C6.93361 13.6527 8.43361 12.1527 10.2747 12.1527C12.1157 12.1527 13.6157 13.6527 13.6157 15.4938C13.6157 17.3348 12.1157 18.8348 10.2747 18.8348Z" fill="#3C29B7"/>
<path d="M10.2767 12.5159C11.9188 12.5159 13.2546 13.8485 13.2546 15.4938C13.2546 17.139 11.9219 18.4717 10.2767 18.4717C8.6314 18.4717 7.29877 17.139 7.29877 15.4938C7.29877 13.8485 8.6314 12.5159 10.2767 12.5159ZM10.2767 11.7896C8.2335 11.7896 6.56929 13.4506 6.56929 15.4938C6.56929 17.5369 8.23035 19.2011 10.2767 19.2011C12.3198 19.2011 13.9809 17.5401 13.9809 15.4938C13.9809 13.4506 12.3198 11.7896 10.2767 11.7896Z" fill="white"/>
<path d="M24.8195 23.6317C24.349 23.6317 23.9637 23.2496 23.9606 22.7822C23.9574 22.4033 23.9606 22.0338 23.9701 21.6801C23.9701 21.658 23.989 21.1275 24.1248 20.4549C24.5037 18.5791 25.4637 18.1054 26.7869 17.4486L27.0553 17.3159L27.2385 17.5496C27.8795 18.3675 28.8395 18.838 29.8722 18.838C30.9048 18.838 31.8648 18.3675 32.5059 17.5496L32.689 17.3159L32.9543 17.4486C34.2806 18.1054 35.2374 18.5822 35.6164 20.4517C35.7459 21.077 35.7648 21.6549 35.768 21.6801C35.7806 22.037 35.7838 22.4065 35.7806 22.7854C35.7774 23.2528 35.3922 23.6349 34.9217 23.6349H24.8195V23.6317Z" fill="#3C29B7"/>
<path d="M32.79 17.7738C34.1289 18.4369 34.9184 18.8601 35.2595 20.5243C35.3826 21.1275 35.4016 21.6927 35.4016 21.6927C35.4174 22.1127 35.4174 22.498 35.4142 22.779C35.4111 23.0506 35.19 23.2685 34.9184 23.2685H24.8195C24.5479 23.2685 24.3268 23.0506 24.3237 22.779C24.3205 22.4948 24.3205 22.1127 24.3331 21.6927C24.3331 21.6927 24.3489 21.1811 24.4816 20.5306C24.8195 18.8632 25.6121 18.4401 26.951 17.7769C27.63 18.6453 28.6847 19.2043 29.8689 19.2043C31.0563 19.2043 32.111 18.6422 32.79 17.7738ZM32.5816 16.858L32.2153 17.3253C31.6437 18.0548 30.7879 18.4748 29.8689 18.4748C28.95 18.4748 28.0942 18.0548 27.5226 17.3253L27.1563 16.858L26.6258 17.1232C25.3152 17.7738 24.1847 18.3359 23.7679 20.3853C23.6258 21.0896 23.6068 21.6485 23.6068 21.6706C23.5973 22.0306 23.591 22.4064 23.5973 22.7854C23.6037 23.4517 24.1531 23.9948 24.8195 23.9948H34.9184C35.5847 23.9948 36.1342 23.4517 36.1405 22.7854C36.1437 22.4032 36.1405 22.0275 36.1279 21.6643C36.1279 21.639 36.1058 21.0296 35.97 20.3727C35.5532 18.3296 34.4226 17.7674 33.1121 17.1169L32.5816 16.858Z" fill="white"/>
<path d="M29.8724 18.8348C28.0281 18.8348 26.5313 17.3348 26.5313 15.4938C26.5313 13.6527 28.0313 12.1527 29.8724 12.1527C31.7134 12.1527 33.2134 13.6527 33.2134 15.4938C33.2134 17.3348 31.7134 18.8348 29.8724 18.8348Z" fill="#3C29B7"/>
<path d="M29.8715 12.5159C31.5136 12.5159 32.8494 13.8485 32.8494 15.4938C32.8494 17.139 31.5167 18.4717 29.8715 18.4717C28.2262 18.4717 26.8936 17.139 26.8936 15.4938C26.8904 13.8485 28.2262 12.5159 29.8715 12.5159ZM29.8715 11.7896C27.8283 11.7896 26.1641 13.4506 26.1641 15.4938C26.1641 17.5369 27.8251 19.2011 29.8715 19.2011C31.9146 19.2011 33.5757 17.5401 33.5757 15.4938C33.5757 13.4506 31.9146 11.7896 29.8715 11.7896Z" fill="white"/>
<path d="M27.2434 21.759C26.5645 22.6275 25.5097 23.1896 24.3224 23.1896C23.1381 23.1896 22.0834 22.6275 21.4045 21.7622C20.0655 22.4253 19.276 22.8485 18.935 24.5159C18.8023 25.1664 18.7866 25.678 18.7866 25.678C18.7739 26.098 18.7739 26.4801 18.7771 26.7643C18.7802 27.0359 19.0013 27.2538 19.2729 27.2538H29.3718C29.6434 27.2538 29.8645 27.0359 29.8676 26.7643C29.8708 26.4801 29.8708 26.098 29.855 25.678C29.855 25.678 29.8361 25.1127 29.7129 24.5096C29.3718 22.8485 28.5824 22.4254 27.2434 21.759Z" fill="#CCC3FF"/>
<path d="M24.3209 22.8232C22.4799 22.8232 20.9799 21.3232 20.9799 19.4821C20.9799 17.6411 22.4799 16.1411 24.3209 16.1411C25.2146 16.1411 26.0515 16.4884 26.683 17.12C27.3146 17.7516 27.662 18.5916 27.662 19.4821C27.662 21.3232 26.1651 22.8232 24.3209 22.8232Z" fill="#CCC3FF"/>
<path d="M24.325 16.5043C25.9671 16.5043 27.3029 17.8369 27.3029 19.4822C27.3029 21.1274 25.9703 22.4601 24.325 22.4601C22.6798 22.4601 21.3471 21.1274 21.3471 19.4822C21.344 17.8369 22.6798 16.5043 24.325 16.5043C24.3219 16.5043 24.3219 16.5043 24.325 16.5043ZM24.325 15.7748C22.2819 15.7748 20.6177 17.4358 20.6177 19.479C20.6177 21.5222 22.2787 23.1864 24.325 23.1864C26.3682 23.1864 28.0292 21.5253 28.0292 19.479C28.0292 17.4358 26.365 15.7748 24.325 15.7748Z" fill="white"/>
<path d="M18.7217 21.759C18.0427 22.6275 16.988 23.1896 15.8006 23.1896C14.6164 23.1896 13.5616 22.6275 12.8827 21.7622C11.5437 22.4253 10.7543 22.8485 10.4132 24.5159C10.2806 25.1664 10.2648 25.678 10.2648 25.678C10.2522 26.098 10.2522 26.4801 10.2553 26.7643C10.2585 27.0359 10.4795 27.2538 10.7511 27.2538H20.8501C21.1217 27.2538 21.3427 27.0359 21.3459 26.7643C21.349 26.4801 21.349 26.098 21.3332 25.678C21.3332 25.678 21.3143 25.1127 21.1911 24.5096C20.8501 22.8485 20.0606 22.4254 18.7217 21.759Z" fill="#CCC3FF"/>
<path d="M15.802 22.8232C13.9609 22.8232 12.4609 21.3232 12.4609 19.4821C12.4609 17.6411 13.9609 16.1411 15.802 16.1411C16.6956 16.1411 17.5325 16.4884 18.1641 17.12C18.7956 17.7516 19.143 18.5916 19.143 19.4821C19.143 21.3232 17.643 22.8232 15.802 22.8232Z" fill="#CCC3FF"/>
<path d="M15.8033 16.5043C17.4454 16.5043 18.7812 17.8369 18.7812 19.4822C18.7812 21.1274 17.4485 22.4601 15.8033 22.4601C14.158 22.4601 12.8254 21.1274 12.8254 19.4822C12.8254 17.8369 14.158 16.5043 15.8033 16.5043ZM15.8033 15.7748C13.7601 15.7748 12.0959 17.4358 12.0959 19.479C12.0959 21.5222 13.757 23.1864 15.8033 23.1864C17.8464 23.1864 19.5075 21.5253 19.5075 19.479C19.5075 17.4358 17.8464 15.7748 15.8033 15.7748Z" fill="white"/>
<path d="M14.9073 31.6369C14.4368 31.6369 14.0515 31.2548 14.0483 30.7874C14.0452 30.5316 14.0452 30.1337 14.0578 29.6853C14.0578 29.6632 14.0768 29.1327 14.2126 28.46C14.5915 26.5843 15.5515 26.1106 16.8747 25.4506L17.1399 25.3179L17.3231 25.5516C17.9641 26.3695 18.9241 26.84 19.9568 26.84C20.9894 26.84 21.9494 26.3695 22.5905 25.5516L22.7736 25.3179L23.0389 25.4506C24.3652 26.1074 25.322 26.5843 25.701 28.4537C25.8305 29.079 25.8494 29.6569 25.8526 29.6821C25.8652 30.039 25.8684 30.4085 25.8652 30.7874C25.8589 31.2548 25.4736 31.6369 25.0063 31.6369H14.9073Z" fill="#3C29B7"/>
<path d="M22.8769 25.779C24.2159 26.4421 25.0053 26.8653 25.3464 28.5295C25.4696 29.1326 25.4885 29.6979 25.4885 29.6979C25.5043 30.1179 25.5043 30.5032 25.5011 30.7842C25.498 31.0558 25.2769 31.2737 25.0053 31.2737H14.9064C14.6348 31.2737 14.4137 31.0558 14.4106 30.7842C14.4074 30.5 14.4074 30.1179 14.4201 29.6979C14.4201 29.6979 14.4359 29.1863 14.5685 28.5358C14.9064 26.8684 15.699 26.4453 17.038 25.7821C17.7169 26.6505 18.7717 27.2095 19.9559 27.2095C21.1401 27.2095 22.1948 26.6474 22.8769 25.779ZM22.6685 24.8632L22.3022 25.3305C21.7306 26.06 20.8748 26.48 19.9559 26.48C19.0369 26.48 18.1811 26.06 17.6095 25.3305L17.2432 24.8632L16.7127 25.1284C15.4022 25.779 14.2716 26.3411 13.8548 28.3905C13.7127 29.0947 13.6937 29.6537 13.6937 29.6758C13.6843 30.0358 13.678 30.4116 13.6843 30.7905C13.6906 31.4569 14.2401 32 14.9064 32H25.0053C25.6717 32 26.2211 31.4569 26.2274 30.7905C26.2306 30.4084 26.2274 30.0326 26.2148 29.6695C26.2148 29.6442 26.1927 29.0347 26.0569 28.3779C25.6401 26.3347 24.5096 25.7726 23.199 25.1221L22.6685 24.8632Z" fill="white"/>
<path d="M19.9561 26.84C18.1119 26.84 16.6151 25.34 16.6151 23.499C16.6151 21.6579 18.1151 20.1579 19.9561 20.1579C20.8498 20.1579 21.6866 20.5053 22.3182 21.1368C22.9498 21.7684 23.2972 22.6084 23.2972 23.499C23.2972 25.3432 21.8003 26.84 19.9561 26.84Z" fill="#3C29B7"/>
<path d="M19.9557 20.5211C21.5978 20.5211 22.9336 21.8537 22.9336 23.499C22.9336 25.1442 21.6009 26.4769 19.9557 26.4769C18.3104 26.4769 16.9778 25.1442 16.9778 23.499C16.9778 21.8537 18.3104 20.5211 19.9557 20.5211ZM19.9557 19.7947C17.9125 19.7947 16.2483 21.4558 16.2483 23.499C16.2483 25.5421 17.9094 27.2063 19.9557 27.2063C21.9988 27.2063 23.6599 25.5453 23.6599 23.499C23.6599 21.4558 21.9988 19.7947 19.9557 19.7947Z" fill="white"/>
</svg>
